HIERARCHY
ROOT Hips
{
	OFFSET 0.000000 0.000000 0.000000
	CHANNELS 6 Xposition Yposition Zposition Xrotation Yrotation Zrotation
	JOINT LeftUpLeg_virtual
	{
		OFFSET 0.000000 0.000000 0.000000
		CHANNELS 3 Xrotation Yrotation Zrotation
		JOINT LeftUpLeg
		{
			OFFSET 10.205400 -3.823500 0.155100
			CHANNELS 3 Xrotation Yrotation Zrotation
			JOINT LeftLeg
			{
				OFFSET 0.708757 -12.982077 0.567790
				CHANNELS 3 Xrotation Yrotation Zrotation
				JOINT LeftFoot
				{
					OFFSET -0.708756 -10.717838 -2.184338
					CHANNELS 3 Xrotation Yrotation Zrotation
					JOINT LeftToeBase
					{
						OFFSET 0.108149 -7.191104 7.560241
						CHANNELS 3 Xrotation Yrotation Zrotation
						JOINT LeftToe_End
						{
							OFFSET 0.070230 0.081724 4.490308
							CHANNELS 3 Xrotation Yrotation Zrotation
							End Site
							{
								OFFSET 0 0 0
							}
						}
					}
				}
			}
		}
	}
	JOINT RightUpLeg_virtual
	{
		OFFSET 0.000000 0.000000 0.000000
		CHANNELS 3 Xrotation Yrotation Zrotation
		JOINT RightUpLeg
		{
			OFFSET -10.205400 -3.823500 0.005500
			CHANNELS 3 Xrotation Yrotation Zrotation
			JOINT RightLeg
			{
				OFFSET -0.708756 -12.982134 0.610632
				CHANNELS 3 Xrotation Yrotation Zrotation
				JOINT RightFoot
				{
					OFFSET 0.708754 -10.717769 -1.945823
					CHANNELS 3 Xrotation Yrotation Zrotation
					JOINT RightToeBase
					{
						OFFSET -0.108140 -7.191069 7.372968
						CHANNELS 3 Xrotation Yrotation Zrotation
						JOINT RightToe_End
						{
							OFFSET -0.070227 0.081735 4.479403
							CHANNELS 3 Xrotation Yrotation Zrotation
							End Site
							{
								OFFSET 0 0 0
							}
						}
					}
				}
			}
		}
	}
	JOINT Spine_virtual
	{
		OFFSET 0.000000 0.000000 0.000000
		CHANNELS 3 Xrotation Yrotation Zrotation
		JOINT Spine
		{
			OFFSET 0.000000 6.876099 0.125700
			CHANNELS 3 Xrotation Yrotation Zrotation
			JOINT Spine1
			{
				OFFSET 0.000000 5.730043 0.104720
				CHANNELS 3 Xrotation Yrotation Zrotation
				JOINT Spine1_split
				{
					OFFSET 0.000000 5.730043 0.104720
					CHANNELS 3 Xrotation Yrotation Zrotation
					JOINT Spine2
					{
						OFFSET 0.000000 5.730043 0.104720
						CHANNELS 3 Xrotation Yrotation Zrotation
						JOINT Neck_virtual
						{
							OFFSET 0.000000 0.000000 0.000000
							CHANNELS 3 Xrotation Yrotation Zrotation
							JOINT Neck
							{
								OFFSET 0.000000 10.314075 0.188496
								CHANNELS 3 Xrotation Yrotation Zrotation
								JOINT Head
								{
									OFFSET 0.000000 7.643700 -2.377400
									CHANNELS 3 Xrotation Yrotation Zrotation
									JOINT HeadTop_End
									{
										OFFSET 0.000000 43.788605 -13.619600
										CHANNELS 3 Xrotation Yrotation Zrotation
										End Site
										{
											OFFSET 0 0 0
										}
									}
								}
							}
						}
						JOINT LeftShoulder_virtual
						{
							OFFSET 0.000000 0.000000 0.000000
							CHANNELS 3 Xrotation Yrotation Zrotation
							JOINT LeftShoulder
							{
								OFFSET 2.196100 4.412489 0.087492
								CHANNELS 3 Xrotation Yrotation Zrotation
								JOINT LeftShoulder_split
								{
									OFFSET 2.196100 4.412489 0.087492
									CHANNELS 3 Xrotation Yrotation Zrotation
									JOINT LeftArm
									{
										OFFSET 8.771219 -2.981674 -0.026999
										CHANNELS 3 Xrotation Yrotation Zrotation
										JOINT LeftForeArm
										{
											OFFSET 8.512804 0.000000 -0.000000
											CHANNELS 3 Xrotation Yrotation Zrotation
											JOINT LeftHand
											{
												OFFSET 18.484802 0.000000 -0.000000
												CHANNELS 3 Xrotation Yrotation Zrotation
												End Site
												{
													OFFSET 0 0 0
												}
											}
										}
									}
								}
							}
						}
						JOINT RightShoulder_virtual
						{
							OFFSET 0.000000 0.000000 0.000000
							CHANNELS 3 Xrotation Yrotation Zrotation
							JOINT RightShoulder
							{
								OFFSET -2.196100 4.412496 0.070690
								CHANNELS 3 Xrotation Yrotation Zrotation
								JOINT RightShoulder_split
								{
									OFFSET -2.196100 4.412496 0.070690
									CHANNELS 3 Xrotation Yrotation Zrotation
									JOINT RightArm
									{
										OFFSET -8.771282 -2.981682 -0.094208
										CHANNELS 3 Xrotation Yrotation Zrotation
										JOINT RightForeArm
										{
											OFFSET -8.494598 0.000000 0.000000
											CHANNELS 3 Xrotation Yrotation Zrotation
											JOINT RightHand
											{
												OFFSET -18.483803 0.000000 0.000001
												CHANNELS 3 Xrotation Yrotation Zrotation
												End Site
												{
													OFFSET 0 0 0
												}
											}
										}
									}
								}
							}
						}
					}
				}
			}
		}
	}
}
MOTION
Frames: 4
Frame Time: 0.03333333
-0.275682 27.856594 1.981915 0.000000 0.000000 0.000000 14.436409 -47.354839 12.086419 -67.287062 25.107374 40.959497 44.562859 -16.828408 3.278240 1.678324 0.999018 -8.676171 0.406298 -4.824210 -0.809969 0.000000 0.000000 0.000000 12.927965 -47.531618 12.359638 -24.513604 -0.774480 -31.768391 44.446824 10.930573 -10.863386 -36.171896 -7.726637 32.005392 5.715834 9.339795 2.406220 0.000000 0.000000 0.000000 16.119101 -44.070341 13.138092 11.152960 1.078059 -4.107242 3.553155 8.377944 -3.700275 1.309803 -3.358037 0.995540 0.000000 0.000000 0.000000 -3.006250 5.366549 -1.309893 -3.926044 13.381488 4.356063 -4.866062 23.342175 -3.422632 0.000000 0.000000 0.000000 -4.017536 5.522225 -1.790287 0.881697 -11.498586 -0.527871 0.450204 -2.988871 -1.409653 -13.988189 7.230882 -49.658272 -21.072716 -24.940779 -13.940671 0.000000 0.000000 0.000000 -4.261714 4.918143 -1.649345 -2.596765 23.902828 0.913668 3.856874 2.785085 0.648598 10.089696 -34.613104 60.745223 -23.420015 42.912897 19.894169 0.000000 0.000000 0.000000 
0.159483 27.878532 2.247177 0.000000 0.000000 0.000000 14.493161 -47.936959 11.927710 -66.924044 25.077717 41.076594 45.193449 -16.632325 2.920845 0.827784 1.198709 -8.827538 0.467351 -4.920341 -0.382669 0.000000 0.000000 0.000000 13.153635 -48.021878 12.421139 -24.534321 -0.122479 -32.208997 42.800100 11.049866 -10.285876 -35.700344 -7.527434 32.034806 4.496047 9.383749 2.262437 0.000000 0.000000 0.000000 15.929304 -44.626205 12.770085 11.145602 1.151185 -3.883740 3.487130 8.175144 -3.792455 0.776321 -3.354908 0.833516 0.000000 0.000000 0.000000 -3.232946 5.165787 -1.308553 -3.904953 13.174129 4.044533 -4.529115 23.638043 -3.754120 0.000000 0.000000 0.000000 -4.241545 5.328399 -1.824581 0.801506 -11.263365 -0.267084 1.545402 -2.463342 -1.398080 -13.195801 7.790000 -49.524640 -20.889393 -25.315802 -14.179398 0.000000 0.000000 0.000000 -4.453933 4.740909 -1.650084 -2.751171 23.657648 1.540587 4.047530 2.592307 0.615257 11.255217 -35.146033 61.796335 -23.359143 42.043038 19.705039 0.000000 0.000000 0.000000 
0.950753 28.000393 2.644697 0.000000 0.000000 0.000000 14.453010 -49.607285 11.780762 -66.452440 25.470749 41.435722 46.761278 -16.117428 2.346987 -0.892423 1.639694 -8.431790 0.356420 -4.999719 0.092357 0.000000 0.000000 0.000000 13.382326 -49.743769 12.496638 -24.823873 0.456297 -33.246578 39.462074 11.299437 -9.323076 -33.143175 -6.922400 33.203674 4.191120 9.260890 1.976754 0.000000 0.000000 0.000000 15.897583 -46.230921 12.583153 11.177418 1.278260 -3.487318 3.617929 7.681998 -3.774587 0.282017 -3.244966 0.852873 0.000000 0.000000 0.000000 -3.247866 4.651876 -1.234351 -3.133717 12.558870 3.790856 -4.754036 23.261705 -4.350259 0.000000 0.000000 0.000000 -4.330877 4.811429 -1.795517 0.667720 -10.993458 0.075364 2.679459 -1.990730 -0.942259 -12.097216 8.559930 -49.504750 -20.069596 -25.361759 -14.513725 0.000000 0.000000 0.000000 -4.470679 4.252880 -1.598988 -3.052245 23.181128 2.250689 3.850802 2.346106 0.297170 11.749061 -35.005925 62.377317 -23.500526 40.748758 19.727195 0.000000 0.000000 0.000000 
1.928849 28.174799 3.146151 0.000000 0.000000 0.000000 14.381914 -52.107588 11.741877 -65.823079 26.264084 41.851062 48.695209 -15.443080 1.627769 -3.357763 2.146725 -7.486169 0.286038 -5.081754 0.565931 0.000000 0.000000 0.000000 13.472913 -52.275082 12.529296 -25.342300 0.840859 -34.745678 35.304182 11.663767 -8.071676 -28.630341 -5.903240 35.607880 4.354445 8.983876 1.682421 0.000000 0.000000 0.000000 16.021489 -48.565534 12.574717 11.182527 1.427036 -2.943383 3.952854 6.905869 -3.659996 0.024729 -3.168171 1.088956 0.000000 0.000000 0.000000 -3.037390 3.821688 -1.121590 -1.772489 11.605526 3.630432 -5.623120 22.248329 -5.097192 0.000000 0.000000 0.000000 -4.247728 3.963653 -1.727256 0.486277 -10.786335 0.406424 3.719580 -1.526032 -0.147828 -10.990373 9.509251 -49.443097 -18.784342 -25.012960 -14.852173 0.000000 0.000000 0.000000 -4.335945 3.428811 -1.512923 -3.399659 22.513605 2.855053 3.158787 1.900347 -0.115886 11.398963 -34.077094 62.411065 -23.858667 39.272273 19.955779 0.000000 0.000000 0.000000 
